<svg xmlns="http://www.w3.org/2000/svg" width="16" height="16" fill="currentColor"><path fill-rule="evenodd" d="M7 .25A.25.25 0 0 1 7.25 0h1.5A.25.25 0 0 1 9 .25V3.1c.638.13 1.233.38 1.757.728l2.016-2.015a.25.25 0 0 1 .354 0l1.06 1.06a.25.25 0 0 1 0 .354l-2.015 2.016c.347.524.598 1.119.728 1.757h2.85a.25.25 0 0 1 .25.25v1.5a.25.25 0 0 1-.25.25H12.9a5 5 0 0 1-.728 1.757l2.015 2.016a.25.25 0 0 1 0 .354l-1.06 1.06a.25.25 0 0 1-.354 0l-2.016-2.015A5 5 0 0 1 9 12.9v2.85a.25.25 0 0 1-.25.25h-1.5a.25.25 0 0 1-.25-.25V12.9a5 5 0 0 1-1.757-.728l-2.016 2.015a.25.25 0 0 1-.354 0l-1.06-1.06a.25.25 0 0 1 0-.354l2.015-2.016A5 5 0 0 1 3.1 9H.25A.25.25 0 0 1 0 8.75v-1.5A.25.25 0 0 1 .25 7H3.1c.13-.638.38-1.233.728-1.757L1.813 3.227a.25.25 0 0 1 0-.354l1.06-1.06a.25.25 0 0 1 .354 0l2.016 2.015A5 5 0 0 1 7 3.1zM8 10a2 2 0 1 0 0-4 2 2 0 0 0 0 4" clip-rule="evenodd"/></svg>